<mxfile host="app.diagrams.net" agent="Mozilla/5.0 (Windows NT 10.0; Win64; x64) AppleWebKit/537.36 (KHTML, like Gecko) Chrome/132.0.0.0 Safari/537.36 Edg/132.0.0.0" version="26.0.11">
  <diagram id="R2lEEEUBdFMjLlhIrx00" name="Page-1">
    <mxGraphModel dx="1188" dy="1751" grid="1" gridSize="10" guides="1" tooltips="1" connect="1" arrows="1" fold="1" page="1" pageScale="1" pageWidth="850" pageHeight="1100" math="0" shadow="0" extFonts="Permanent Marker^https://fonts.googleapis.com/css?family=Permanent+Marker">
      <root>
        <mxCell id="0" />
        <mxCell id="1" parent="0" />
        <mxCell id="oxlZo_RNe2t6R8mUSxhu-1" value="LIBRO" style="whiteSpace=wrap;html=1;align=center;" vertex="1" parent="1">
          <mxGeometry x="375" y="30" width="100" height="40" as="geometry" />
        </mxCell>
        <mxCell id="oxlZo_RNe2t6R8mUSxhu-2" value="EJEMPLAR" style="whiteSpace=wrap;html=1;align=center;" vertex="1" parent="1">
          <mxGeometry x="375" y="220" width="100" height="40" as="geometry" />
        </mxCell>
        <mxCell id="oxlZo_RNe2t6R8mUSxhu-3" value="EJEMPLAR DE VENTA" style="whiteSpace=wrap;html=1;align=center;" vertex="1" parent="1">
          <mxGeometry x="315" y="400" width="100" height="40" as="geometry" />
        </mxCell>
        <mxCell id="oxlZo_RNe2t6R8mUSxhu-4" value="EJEMPLAR DE ALQUILER" style="whiteSpace=wrap;html=1;align=center;" vertex="1" parent="1">
          <mxGeometry x="435" y="400" width="100" height="40" as="geometry" />
        </mxCell>
        <mxCell id="oxlZo_RNe2t6R8mUSxhu-5" value="RESEÑA" style="whiteSpace=wrap;html=1;align=center;" vertex="1" parent="1">
          <mxGeometry x="680" y="-160" width="100" height="40" as="geometry" />
        </mxCell>
        <mxCell id="oxlZo_RNe2t6R8mUSxhu-6" value="USUARIO" style="whiteSpace=wrap;html=1;align=center;" vertex="1" parent="1">
          <mxGeometry x="120" y="-280" width="100" height="40" as="geometry" />
        </mxCell>
        <mxCell id="oxlZo_RNe2t6R8mUSxhu-8" value="CLIENTE" style="whiteSpace=wrap;html=1;align=center;" vertex="1" parent="1">
          <mxGeometry x="60" y="-50" width="100" height="40" as="geometry" />
        </mxCell>
        <mxCell id="oxlZo_RNe2t6R8mUSxhu-9" value="ADMINISTRADOR" style="whiteSpace=wrap;html=1;align=center;" vertex="1" parent="1">
          <mxGeometry x="180" y="-50" width="100" height="40" as="geometry" />
        </mxCell>
        <mxCell id="oxlZo_RNe2t6R8mUSxhu-13" value="" style="triangle;whiteSpace=wrap;html=1;rotation=90;" vertex="1" parent="1">
          <mxGeometry x="140" y="-160" width="60" height="60" as="geometry" />
        </mxCell>
        <mxCell id="oxlZo_RNe2t6R8mUSxhu-14" value="" style="endArrow=none;html=1;rounded=0;entryX=0.5;entryY=1;entryDx=0;entryDy=0;exitX=0.5;exitY=0;exitDx=0;exitDy=0;" edge="1" parent="1" source="oxlZo_RNe2t6R8mUSxhu-17" target="oxlZo_RNe2t6R8mUSxhu-6">
          <mxGeometry width="50" height="50" relative="1" as="geometry">
            <mxPoint x="170" y="-190" as="sourcePoint" />
            <mxPoint x="450" y="-20" as="targetPoint" />
          </mxGeometry>
        </mxCell>
        <mxCell id="oxlZo_RNe2t6R8mUSxhu-15" value="" style="endArrow=none;html=1;rounded=0;entryX=0.5;entryY=1;entryDx=0;entryDy=0;exitX=0.5;exitY=0;exitDx=0;exitDy=0;" edge="1" parent="1" source="oxlZo_RNe2t6R8mUSxhu-8" target="oxlZo_RNe2t6R8mUSxhu-13">
          <mxGeometry width="50" height="50" relative="1" as="geometry">
            <mxPoint x="400" y="30" as="sourcePoint" />
            <mxPoint x="450" y="-20" as="targetPoint" />
          </mxGeometry>
        </mxCell>
        <mxCell id="oxlZo_RNe2t6R8mUSxhu-16" value="" style="endArrow=none;html=1;rounded=0;entryX=0.5;entryY=0;entryDx=0;entryDy=0;exitX=0.5;exitY=0;exitDx=0;exitDy=0;" edge="1" parent="1" source="oxlZo_RNe2t6R8mUSxhu-9" target="oxlZo_RNe2t6R8mUSxhu-13">
          <mxGeometry width="50" height="50" relative="1" as="geometry">
            <mxPoint x="400" y="30" as="sourcePoint" />
            <mxPoint x="450" y="-20" as="targetPoint" />
          </mxGeometry>
        </mxCell>
        <mxCell id="oxlZo_RNe2t6R8mUSxhu-17" value="" style="ellipse;whiteSpace=wrap;html=1;aspect=fixed;" vertex="1" parent="1">
          <mxGeometry x="160" y="-180" width="20" height="20" as="geometry" />
        </mxCell>
        <mxCell id="oxlZo_RNe2t6R8mUSxhu-20" value="" style="triangle;whiteSpace=wrap;html=1;rotation=90;" vertex="1" parent="1">
          <mxGeometry x="395" y="300" width="60" height="60" as="geometry" />
        </mxCell>
        <mxCell id="oxlZo_RNe2t6R8mUSxhu-21" value="" style="ellipse;whiteSpace=wrap;html=1;aspect=fixed;" vertex="1" parent="1">
          <mxGeometry x="415" y="280" width="20" height="20" as="geometry" />
        </mxCell>
        <mxCell id="oxlZo_RNe2t6R8mUSxhu-22" value="" style="endArrow=none;html=1;rounded=0;entryX=0.5;entryY=1;entryDx=0;entryDy=0;" edge="1" parent="1" source="oxlZo_RNe2t6R8mUSxhu-21" target="oxlZo_RNe2t6R8mUSxhu-2">
          <mxGeometry width="50" height="50" relative="1" as="geometry">
            <mxPoint x="210" y="210" as="sourcePoint" />
            <mxPoint x="260" y="160" as="targetPoint" />
          </mxGeometry>
        </mxCell>
        <mxCell id="oxlZo_RNe2t6R8mUSxhu-23" value="" style="endArrow=none;html=1;rounded=0;entryX=0.5;entryY=1;entryDx=0;entryDy=0;exitX=0.5;exitY=0;exitDx=0;exitDy=0;" edge="1" parent="1" source="oxlZo_RNe2t6R8mUSxhu-3" target="oxlZo_RNe2t6R8mUSxhu-20">
          <mxGeometry width="50" height="50" relative="1" as="geometry">
            <mxPoint x="210" y="210" as="sourcePoint" />
            <mxPoint x="260" y="160" as="targetPoint" />
          </mxGeometry>
        </mxCell>
        <mxCell id="oxlZo_RNe2t6R8mUSxhu-24" value="" style="endArrow=none;html=1;rounded=0;entryX=0.5;entryY=0;entryDx=0;entryDy=0;exitX=0.5;exitY=0;exitDx=0;exitDy=0;" edge="1" parent="1" source="oxlZo_RNe2t6R8mUSxhu-4" target="oxlZo_RNe2t6R8mUSxhu-20">
          <mxGeometry width="50" height="50" relative="1" as="geometry">
            <mxPoint x="210" y="210" as="sourcePoint" />
            <mxPoint x="260" y="160" as="targetPoint" />
          </mxGeometry>
        </mxCell>
        <mxCell id="oxlZo_RNe2t6R8mUSxhu-25" value="Tiene" style="shape=rhombus;perimeter=rhombusPerimeter;whiteSpace=wrap;html=1;align=center;" vertex="1" parent="1">
          <mxGeometry x="388" y="120" width="75" height="40" as="geometry" />
        </mxCell>
        <mxCell id="oxlZo_RNe2t6R8mUSxhu-26" value="" style="endArrow=none;html=1;rounded=0;entryX=0.5;entryY=1;entryDx=0;entryDy=0;exitX=0.5;exitY=0;exitDx=0;exitDy=0;" edge="1" parent="1" source="oxlZo_RNe2t6R8mUSxhu-25" target="oxlZo_RNe2t6R8mUSxhu-1">
          <mxGeometry relative="1" as="geometry">
            <mxPoint x="160" y="100" as="sourcePoint" />
            <mxPoint x="320" y="100" as="targetPoint" />
          </mxGeometry>
        </mxCell>
        <mxCell id="oxlZo_RNe2t6R8mUSxhu-27" value="(1,1)" style="resizable=0;html=1;whiteSpace=wrap;align=right;verticalAlign=bottom;" connectable="0" vertex="1" parent="oxlZo_RNe2t6R8mUSxhu-26">
          <mxGeometry x="1" relative="1" as="geometry">
            <mxPoint y="20" as="offset" />
          </mxGeometry>
        </mxCell>
        <mxCell id="oxlZo_RNe2t6R8mUSxhu-28" value="" style="endArrow=none;html=1;rounded=0;exitX=0.5;exitY=1;exitDx=0;exitDy=0;entryX=0.5;entryY=0;entryDx=0;entryDy=0;" edge="1" parent="1" source="oxlZo_RNe2t6R8mUSxhu-25" target="oxlZo_RNe2t6R8mUSxhu-2">
          <mxGeometry relative="1" as="geometry">
            <mxPoint x="160" y="100" as="sourcePoint" />
            <mxPoint x="320" y="100" as="targetPoint" />
          </mxGeometry>
        </mxCell>
        <mxCell id="oxlZo_RNe2t6R8mUSxhu-29" value="(0,N)" style="resizable=0;html=1;whiteSpace=wrap;align=right;verticalAlign=bottom;" connectable="0" vertex="1" parent="oxlZo_RNe2t6R8mUSxhu-28">
          <mxGeometry x="1" relative="1" as="geometry" />
        </mxCell>
        <mxCell id="oxlZo_RNe2t6R8mUSxhu-31" value="TRANSACCIÓN" style="whiteSpace=wrap;html=1;align=center;" vertex="1" parent="1">
          <mxGeometry x="375.5" y="-200" width="100" height="40" as="geometry" />
        </mxCell>
      </root>
    </mxGraphModel>
  </diagram>
</mxfile>
